<svg width="48" height="48" viewBox="0 0 48 48" fill="none" xmlns="http://www.w3.org/2000/svg">
<g clip-path="url(#clip0_0_1630)" filter="url(#filter0_d_0_1630)">
<rect x="10" y="6" width="28" height="28" rx="3" fill="#0DAADE"/>
<path d="M24.5 21C25.3284 21 26 20.3284 26 19.5C26 18.6716 25.3284 18 24.5 18C23.6716 18 23 18.6716 23 19.5C23 20.3284 23.6716 21 24.5 21Z" fill="white"/>
<path d="M30.5 21C31.3284 21 32 20.3284 32 19.5C32 18.6716 31.3284 18 30.5 18C29.6716 18 29 18.6716 29 19.5C29 20.3284 29.6716 21 30.5 21Z" fill="white"/>
<path d="M18.5 21C19.3284 21 20 20.3284 20 19.5C20 18.6716 19.3284 18 18.5 18C17.6716 18 17 18.6716 17 19.5C17 20.3284 17.6716 21 18.5 21Z" fill="white"/>
</g>
<defs>
<filter id="filter0_d_0_1630" x="0" y="0" width="48" height="48" filterUnits="userSpaceOnUse" color-interpolation-filters="sRGB">
<feFlood flood-opacity="0" result="BackgroundImageFix"/>
<feColorMatrix in="SourceAlpha" type="matrix" values="0 0 0 0 0 0 0 0 0 0 0 0 0 0 0 0 0 0 127 0" result="hardAlpha"/>
<feOffset dy="4"/>
<feGaussianBlur stdDeviation="5"/>
<feColorMatrix type="matrix" values="0 0 0 0 0.0509804 0 0 0 0 0.666667 0 0 0 0 0.870588 0 0 0 0.2 0"/>
<feBlend mode="normal" in2="BackgroundImageFix" result="effect1_dropShadow_0_1630"/>
<feBlend mode="normal" in="SourceGraphic" in2="effect1_dropShadow_0_1630" result="shape"/>
</filter>
<clipPath id="clip0_0_1630">
<rect width="28" height="28" fill="white" transform="translate(10 6)"/>
</clipPath>
</defs>
</svg>
