<svg width="16" height="16" viewBox="0 0 16 16" fill="none" xmlns="http://www.w3.org/2000/svg">
<g clip-path="url(#clip0_0_111)">
<path d="M8 15.0909C11.9162 15.0909 15.0909 11.9162 15.0909 8.00003C15.0909 4.08383 11.9162 0.909119 8 0.909119C4.0838 0.909119 0.909092 4.08383 0.909092 8.00003C0.909092 11.9162 4.0838 15.0909 8 15.0909Z" fill="#40BF7B"/>
<path d="M8 10.3636C9.63175 10.3636 10.9545 9.04079 10.9545 7.40904C10.9545 5.77729 9.63175 4.4545 8 4.4545C6.36825 4.4545 5.04546 5.77729 5.04546 7.40904C5.04546 9.04079 6.36825 10.3636 8 10.3636Z" stroke="white" stroke-width="1.5" stroke-miterlimit="10"/>
<path d="M3.25788 13.2719C3.70299 12.3968 4.38158 11.6619 5.21854 11.1486C6.05549 10.6353 7.01816 10.3636 7.99998 10.3636C8.9818 10.3636 9.94447 10.6353 10.7814 11.1486C11.6184 11.6619 12.297 12.3968 12.7421 13.2719" stroke="white" stroke-width="1.5" stroke-linecap="round" stroke-linejoin="round"/>
</g>
<defs>
<clipPath id="clip0_0_111">
<rect width="16" height="16" fill="white"/>
</clipPath>
</defs>
</svg>
