<svg width="32" height="32" viewBox="0 0 32 32" fill="none" xmlns="http://www.w3.org/2000/svg">
<circle opacity="0.8" cx="16" cy="16" r="15" fill="white"/>
<path d="M17.0572 6.73454L16 6.24118L14.9428 6.73454L9.94279 9.06788L8.5 9.74118V11.3333V18.625V19.4785L9.02193 20.1538C9.76062 21.1096 10.4629 21.9768 11.3734 22.8053C12.2929 23.6421 13.3485 24.3721 14.7688 25.1758L15.9918 25.8678L17.2187 25.1828L17.2586 25.1605C18.0624 24.7118 18.8755 24.258 19.7956 23.4976C20.711 22.7412 21.6654 21.7405 22.9251 20.2199L23.5 19.5261V18.625V11.3333V9.74118L22.0572 9.06788L17.0572 6.73454Z" stroke="#BFE9F8" stroke-width="5"/>
<path d="M16.197 6.54043L16 6.45602L15.803 6.54043L8.80304 9.54043L8.5 9.6703V10V19.375V19.5574L8.61744 19.6969C9.63392 20.9048 10.4861 21.8605 11.5577 22.756C12.6305 23.6526 13.9075 24.4761 15.7694 25.4437L15.9985 25.5627L16.2281 25.4449C17.3766 24.856 18.3109 24.3767 19.3866 23.5603C20.4588 22.7466 21.6579 21.6092 23.3713 19.7099L23.5 19.5672V19.375V10V9.6703L23.197 9.54043L16.197 6.54043Z" fill="white" stroke="#046281"/>
<path d="M10 10.6667L16 8V24C12.8426 22.2984 11.7365 21.1398 10 19V10.6667Z" fill="#C3E7F5"/>
<g filter="url(#filter0_d_0_1965)">
<path d="M14 21L15 16.3571L11 14.9643L18 8L17 12.6429L21 14.0357L14 21Z" fill="#0DAADE"/>
<path d="M13.7067 20.9368C13.6787 21.0667 13.7396 21.1996 13.8562 21.2633C13.9728 21.327 14.1174 21.3064 14.2116 21.2127L21.2116 14.2484C21.2849 14.1755 21.3155 14.0699 21.2925 13.9691C21.2696 13.8683 21.1963 13.7864 21.0987 13.7524L17.3491 12.4468L18.2933 8.06317C18.3213 7.93327 18.2604 7.80044 18.1438 7.73673C18.0272 7.67302 17.8826 7.69361 17.7884 7.78733L10.7884 14.7516C10.7151 14.8245 10.6845 14.9301 10.7075 15.0309C10.7304 15.1317 10.8037 15.2136 10.9013 15.2476L14.6509 16.5532L13.7067 20.9368Z" stroke="white" stroke-width="0.6" stroke-linecap="round" stroke-linejoin="round"/>
</g>
<defs>
<filter id="filter0_d_0_1965" x="8.39996" y="7.39999" width="15.2001" height="19.2" filterUnits="userSpaceOnUse" color-interpolation-filters="sRGB">
<feFlood flood-opacity="0" result="BackgroundImageFix"/>
<feColorMatrix in="SourceAlpha" type="matrix" values="0 0 0 0 0 0 0 0 0 0 0 0 0 0 0 0 0 0 127 0" result="hardAlpha"/>
<feOffset dy="3"/>
<feGaussianBlur stdDeviation="1"/>
<feColorMatrix type="matrix" values="0 0 0 0 0.0509804 0 0 0 0 0.666667 0 0 0 0 0.870588 0 0 0 0.4 0"/>
<feBlend mode="normal" in2="BackgroundImageFix" result="effect1_dropShadow_0_1965"/>
<feBlend mode="normal" in="SourceGraphic" in2="effect1_dropShadow_0_1965" result="shape"/>
</filter>
</defs>
</svg>
