<svg width="10" height="13" viewBox="0 0 10 13" fill="none" xmlns="http://www.w3.org/2000/svg">
<g opacity="0.3">
<path d="M5.82671 0.310882L9.68628 4.252C9.68628 4.252 10 4.5 10 5C10 5.55229 9.55229 6 9 6C8.5 6 8 5.5 8 5.5L6.0004 3.37044V8.98875L6.00046 9L6.0004 9.01125V9.0769C6.0004 9.11679 5.99485 9.14986 5.9847 9.1778C5.90081 9.64527 5.49206 10 5.00046 10C4.51031 10 4.10253 9.64737 4.01697 9.18196C4.00615 9.15349 4.00021 9.11956 4.00021 9.07832V3.37044L1.81848 5.62472C1.81848 5.62472 1.53516 6 1 6C0.447715 6 0 5.55229 0 5C0 4.60547 0.31418 4.252 0.31418 4.252L4.17371 0.310882C4.37282 0.128136 4.63769 0.0176713 4.91912 0H5.0813C5.36274 0.0176713 5.6276 0.128136 5.82671 0.310882Z" fill="#239F5D"/>
<path d="M5.00001 13C5.5523 13 6.00001 12.5523 6.00001 12C6.00001 11.4477 5.5523 11 5.00001 11C4.44773 11 4.00001 11.4477 4.00001 12C4.00001 12.5523 4.44773 13 5.00001 13Z" fill="#239F5D"/>
</g>
</svg>
